<?xml version="1.0" encoding="iso-8859-1"?>
<svg version="1.1" xmlns="http://www.w3.org/2000/svg" xmlns:xlink="http://www.w3.org/1999/xlink" x="0px" y="0px"
	 viewBox="0 0 512 512">
  <path style="fill:#CAEEC5;" d="M512,256c0,141.384-114.616,256-256,256S0,397.384,0,256S114.616,0,256,0S512,114.616,512,256z"/>
  <path style="fill:#97BAA8;" d="M167.64,40.92c5.113-22.692,25.438-39.647,49.731-39.647c24.297,0,44.621,16.955,49.734,39.647
  	c7.949-5.108,17.411-8.072,27.57-8.072c28.152,0,50.973,22.763,50.973,50.834c0,28.078-22.821,50.838-50.973,50.838
  	c-7.874,0-15.324-1.781-21.982-4.956v53.513H162.058v-53.513c-6.66,3.177-14.111,4.956-21.985,4.956
  	c-28.147,0-50.973-22.761-50.973-50.838c0-28.072,22.826-50.834,50.973-50.834C150.23,32.849,159.694,35.812,167.64,40.92
  	L167.64,40.92z"/>
  <path style="fill:#78A097;" d="M272.693,133.129v49.949H162.058v-53.513c-6.66,3.177-14.111,4.956-21.985,4.956
  	c-28.147,0-50.973-22.761-50.973-50.838c0-28.071,22.826-50.834,50.973-50.834c7.441,0,14.507,1.596,20.881,4.456
  	C175.389,86.886,218.879,124.819,272.693,133.129z"/>
  <path style="fill:#CF8F3D;" d="M162.057,183.078v-37.109h110.635v37.109h-0.003C278.101,280.308,156.645,280.308,162.057,183.078z"
  	/>
  <path style="fill:#B76700;" d="M197.895,252.188c21.117-8.562,37.927-31.588,35.839-69.111h0.003v-37.109h38.957v37.109h-0.003
  	C276.013,242.786,231.497,265.813,197.895,252.188z"/>
  <path style="fill:#97BAA8;" d="M400.696,511.996H38.957v-1.26l41.252-101.405c20.034-49.223,49.414-94.874,109.806-94.874l0,0
  	c18.872,0,36.591,0,54.719,0l0,0c53.697,0,82.878,36.094,102.771,78.695L400.696,511.996z"/>
  <path style="fill:#5B7F81;" d="M272.693,184.371H161.998v-38.402h110.696V184.371z"/>
  <path style="fill:#78A097;" d="M266.933,511.996H38.957v-1.26l41.252-101.405c20.034-49.223,49.414-94.874,109.806-94.874
  	c7.039,0,13.916,0,20.716,0c35.309,51.23,56.4,115.989,56.4,186.413C267.13,504.596,267.05,508.301,266.933,511.996z"/>
  <path style="fill:#663310;" d="M481.948,503.096c0,4.917-3.987,8.904-8.904,8.904H157.976c-4.917,0-8.904-3.987-8.904-8.904
  	c0-4.917,3.987-8.904,8.904-8.904h315.067C477.961,494.191,481.948,498.178,481.948,503.096z"/>
  <path style="fill:#FF4328;" d="M414.207,445.217c-2.994,36.285-27.412,64.814-56.844,64.814l0,0
  	c-29.427,0-53.84-28.528-56.841-64.814H414.207L414.207,445.217z"/>
  <path style="fill:#C13421;" d="M414.207,445.217c-2.994,36.285-27.412,64.814-56.844,64.814c-7.799,0-15.239-2.02-22.027-5.641
	c18.832-10.042,32.612-32.503,34.813-59.173H414.207z"/>
</svg>
